HIERARCHY
ROOT Hips
{
	OFFSET 0.000000 71.427986 0.000000
	CHANNELS 6 Xposition Yposition Zposition Xrotation Yrotation Zrotation
	JOINT Pelvis
	{
		OFFSET 0.000000 0.000000 0.000000
		CHANNELS 3 Xrotation Yrotation Zrotation
		JOINT LeftUpLeg
		{
			OFFSET 6.797100 -2.508499 -1.318700
			CHANNELS 3 Xrotation Yrotation Zrotation
			JOINT LeftLeg
			{
				OFFSET 0.069008 -29.241863 0.690200
				CHANNELS 3 Xrotation Yrotation Zrotation
				JOINT LeftFoot
				{
					OFFSET -0.069008 -29.568123 -0.266800
					CHANNELS 3 Xrotation Yrotation Zrotation
					JOINT LeftToeBase
					{
						OFFSET 3.145500 -8.631000 16.059900
						CHANNELS 3 Xrotation Yrotation Zrotation
						End Site
						{
							OFFSET 0.000000 18.501587 0.000000
						}
					}
				}
			}
			JOINT Left_ShortSleeve
			{
				OFFSET 0.265923 -10.480953 1.153800
				CHANNELS 3 Xrotation Yrotation Zrotation
				End Site
				{
					OFFSET 1.725763 19.823879 0.000000
				}
			}
		}
		JOINT RightUpLeg
		{
			OFFSET -6.797100 -2.508499 -1.318700
			CHANNELS 3 Xrotation Yrotation Zrotation
			JOINT RightLeg
			{
				OFFSET -0.082453 -29.241932 0.688000
				CHANNELS 3 Xrotation Yrotation Zrotation
				JOINT RightFoot
				{
					OFFSET 0.082453 -29.568058 -0.264600
					CHANNELS 3 Xrotation Yrotation Zrotation
					JOINT RightToeBase
					{
						OFFSET -3.115300 -8.682800 16.113400
						CHANNELS 3 Xrotation Yrotation Zrotation
						End Site
						{
							OFFSET 0.000000 18.567114 0.000000
						}
					}
				}
			}
			JOINT Right_ShortSleeve
			{
				OFFSET -0.265923 -10.480953 1.153800
				CHANNELS 3 Xrotation Yrotation Zrotation
				End Site
				{
					OFFSET -1.725766 19.823910 0.000000
				}
			}
		}
	}
	JOINT Spine
	{
		OFFSET 0.000000 13.368103 0.470500
		CHANNELS 3 Xrotation Yrotation Zrotation
		JOINT Spine1
		{
			OFFSET 0.147000 13.837402 0.538800
			CHANNELS 3 Xrotation Yrotation Zrotation
			JOINT Spine2
			{
				OFFSET 0.168000 16.242897 -1.435500
				CHANNELS 3 Xrotation Yrotation Zrotation
				JOINT Neck
				{
					OFFSET 0.217200 18.631500 -1.679100
					CHANNELS 3 Xrotation Yrotation Zrotation
					JOINT Head
					{
						OFFSET 0.000000 6.599396 1.385900
						CHANNELS 3 Xrotation Yrotation Zrotation
						JOINT Hat
						{
							OFFSET -0.532200 27.220596 -10.096100
							CHANNELS 3 Xrotation Yrotation Zrotation
							End Site
							{
								OFFSET 0.000000 22.029861 0.000000
							}
						}
						JOINT HairD
						{
							OFFSET -10.777400 17.437393 -1.325900
							CHANNELS 3 Xrotation Yrotation Zrotation
							JOINT HairD1
							{
								OFFSET -3.290299 -11.051193 1.062200
								CHANNELS 3 Xrotation Yrotation Zrotation
								End Site
								{
									OFFSET 0.000000 11.579437 0.000000
								}
							}
						}
						JOINT HairB
						{
							OFFSET -10.777400 17.437393 1.467900
							CHANNELS 3 Xrotation Yrotation Zrotation
							JOINT HairB1
							{
								OFFSET -1.561200 -12.956299 3.590200
								CHANNELS 3 Xrotation Yrotation Zrotation
								End Site
								{
									OFFSET 0.000000 13.534866 0.000000
								}
							}
						}
						JOINT HairA
						{
							OFFSET 9.713100 17.437393 1.467900
							CHANNELS 3 Xrotation Yrotation Zrotation
							JOINT HairA1
							{
								OFFSET 1.561200 -12.956299 3.590200
								CHANNELS 3 Xrotation Yrotation Zrotation
								End Site
								{
									OFFSET 0.000000 13.534866 0.000000
								}
							}
						}
						JOINT HairC
						{
							OFFSET 9.713100 17.437393 -1.325900
							CHANNELS 3 Xrotation Yrotation Zrotation
							JOINT HairC1
							{
								OFFSET 3.290300 -11.051193 1.062200
								CHANNELS 3 Xrotation Yrotation Zrotation
								End Site
								{
									OFFSET 0.000000 11.579437 0.000000
								}
							}
						}
					}
				}
				JOINT LeftShoulder
				{
					OFFSET 5.101800 15.108002 -2.763700
					CHANNELS 3 Xrotation Yrotation Zrotation
					JOINT LeftArm
					{
						OFFSET 9.825497 2.506317 -1.597400
						CHANNELS 3 Xrotation Yrotation Zrotation
						JOINT LeftForeArm
						{
							OFFSET 21.966244 0.000000 0.000000
							CHANNELS 3 Xrotation Yrotation Zrotation
							JOINT LeftHand
							{
								OFFSET 33.879036 0.000000 0.000000
								CHANNELS 3 Xrotation Yrotation Zrotation
								JOINT LeftHandThumb1
								{
									OFFSET 6.715286 -2.359680 3.363841
									CHANNELS 3 Xrotation Yrotation Zrotation
									JOINT LeftHandThumb2
									{
										OFFSET 2.507072 -1.447464 1.447461
										CHANNELS 3 Xrotation Yrotation Zrotation
										JOINT LeftHandThumb3
										{
											OFFSET 2.898338 -1.673355 1.673357
											CHANNELS 3 Xrotation Yrotation Zrotation
											End Site
											{
												OFFSET -0.295959 3.727692 -0.131651
											}
										}
									}
								}
								JOINT LeftHandIndex1
								{
									OFFSET 14.190811 -0.254547 3.840278
									CHANNELS 3 Xrotation Yrotation Zrotation
									JOINT LeftHandIndex2
									{
										OFFSET 3.551727 0.000000 -0.000000
										CHANNELS 3 Xrotation Yrotation Zrotation
										JOINT LeftHandIndex3
										{
											OFFSET 2.894196 0.000000 0.000000
											CHANNELS 3 Xrotation Yrotation Zrotation
											End Site
											{
												OFFSET -1.000603 2.690872 0.366626
											}
										}
									}
								}
								JOINT LeftHandMiddle1
								{
									OFFSET 13.776489 0.000000 0.000000
									CHANNELS 3 Xrotation Yrotation Zrotation
									JOINT LeftHandMiddle2
									{
										OFFSET 3.438232 0.000000 0.000000
										CHANNELS 3 Xrotation Yrotation Zrotation
										JOINT LeftHandMiddle3
										{
											OFFSET 3.691551 0.000000 0.000000
											CHANNELS 3 Xrotation Yrotation Zrotation
											End Site
											{
												OFFSET -1.082298 3.499527 0.457670
											}
										}
									}
								}
								JOINT LeftHandRing1
								{
									OFFSET 13.966164 -0.268127 -3.067488
									CHANNELS 3 Xrotation Yrotation Zrotation
									JOINT LeftHandRing2
									{
										OFFSET 3.162567 0.000000 0.000000
										CHANNELS 3 Xrotation Yrotation Zrotation
										JOINT LeftHandRing3
										{
											OFFSET 3.324348 0.000000 0.000000
											CHANNELS 3 Xrotation Yrotation Zrotation
											End Site
											{
												OFFSET -0.861900 3.184998 0.405154
											}
										}
									}
								}
								JOINT LeftHandPinky1
								{
									OFFSET 13.131393 -0.168503 -5.746925
									CHANNELS 3 Xrotation Yrotation Zrotation
									JOINT LeftHandPinky2
									{
										OFFSET 2.849182 0.000000 0.000000
										CHANNELS 3 Xrotation Yrotation Zrotation
										JOINT LeftHandPinky3
										{
											OFFSET 2.805038 0.000000 0.000000
											CHANNELS 3 Xrotation Yrotation Zrotation
											End Site
											{
												OFFSET -0.882500 2.642609 0.325652
											}
										}
									}
								}
							}
							JOINT Left_Sleeve
							{
								OFFSET 6.592125 -0.646545 0.805568
								CHANNELS 3 Xrotation Yrotation Zrotation
								End Site
								{
									OFFSET -0.000179 20.275787 -0.000000
								}
							}
						}
					}
				}
				JOINT RightShoulder
				{
					OFFSET -5.731700 15.108002 -2.763700
					CHANNELS 3 Xrotation Yrotation Zrotation
					JOINT RightArm
					{
						OFFSET -9.825497 2.506317 -1.597400
						CHANNELS 3 Xrotation Yrotation Zrotation
						JOINT RightForeArm
						{
							OFFSET -21.966242 0.000000 0.000000
							CHANNELS 3 Xrotation Yrotation Zrotation
							JOINT RightHand
							{
								OFFSET -33.879032 0.000000 0.000000
								CHANNELS 3 Xrotation Yrotation Zrotation
								JOINT RightHandThumb1
								{
									OFFSET -6.715286 -2.359680 3.363841
									CHANNELS 3 Xrotation Yrotation Zrotation
									JOINT RightHandThumb2
									{
										OFFSET -2.507072 -1.447464 1.447461
										CHANNELS 3 Xrotation Yrotation Zrotation
										JOINT RightHandThumb3
										{
											OFFSET -2.898338 -1.673355 1.673357
											CHANNELS 3 Xrotation Yrotation Zrotation
											End Site
											{
												OFFSET 0.295959 3.727692 -0.131651
											}
										}
									}
								}
								JOINT RightHandIndex1
								{
									OFFSET -14.190811 -0.254547 3.840278
									CHANNELS 3 Xrotation Yrotation Zrotation
									JOINT RightHandIndex2
									{
										OFFSET -3.551727 0.000000 -0.000000
										CHANNELS 3 Xrotation Yrotation Zrotation
										JOINT RightHandIndex3
										{
											OFFSET -2.894196 0.000000 0.000000
											CHANNELS 3 Xrotation Yrotation Zrotation
											End Site
											{
												OFFSET 1.000603 2.690872 0.366626
											}
										}
									}
								}
								JOINT RightHandMiddle1
								{
									OFFSET -13.776489 0.000000 0.000000
									CHANNELS 3 Xrotation Yrotation Zrotation
									JOINT RightHandMiddle2
									{
										OFFSET -3.438232 0.000000 0.000000
										CHANNELS 3 Xrotation Yrotation Zrotation
										JOINT RightHandMiddle3
										{
											OFFSET -3.691551 0.000000 0.000000
											CHANNELS 3 Xrotation Yrotation Zrotation
											End Site
											{
												OFFSET 1.082298 3.499527 0.457670
											}
										}
									}
								}
								JOINT RightHandRing1
								{
									OFFSET -13.966164 -0.268127 -3.067488
									CHANNELS 3 Xrotation Yrotation Zrotation
									JOINT RightHandRing2
									{
										OFFSET -3.162567 0.000000 0.000000
										CHANNELS 3 Xrotation Yrotation Zrotation
										JOINT RightHandRing3
										{
											OFFSET -3.324348 0.000000 0.000000
											CHANNELS 3 Xrotation Yrotation Zrotation
											End Site
											{
												OFFSET 0.861900 3.184998 0.405154
											}
										}
									}
								}
								JOINT RightHandPinky1
								{
									OFFSET -13.131393 -0.168503 -5.746925
									CHANNELS 3 Xrotation Yrotation Zrotation
									JOINT RightHandPinky2
									{
										OFFSET -2.849182 0.000000 0.000000
										CHANNELS 3 Xrotation Yrotation Zrotation
										JOINT RightHandPinky3
										{
											OFFSET -2.805038 0.000000 0.000000
											CHANNELS 3 Xrotation Yrotation Zrotation
											End Site
											{
												OFFSET 0.882500 2.642609 0.325652
											}
										}
									}
								}
							}
							JOINT Right_Sleeve
							{
								OFFSET -6.592125 -0.646545 0.805568
								CHANNELS 3 Xrotation Yrotation Zrotation
								End Site
								{
									OFFSET 0.000179 20.275787 -0.000000
								}
							}
						}
					}
				}
				JOINT Bind_Right_JacketString
				{
					OFFSET -3.534800 11.969597 7.200700
					CHANNELS 3 Xrotation Yrotation Zrotation
					JOINT Bind_Right_JacketString1
					{
						OFFSET -0.319900 -6.102600 2.794100
						CHANNELS 3 Xrotation Yrotation Zrotation
						End Site
						{
							OFFSET 0.000000 6.719452 0.000000
						}
					}
				}
				JOINT Bind_Left_JacketString
				{
					OFFSET 2.904800 11.969597 7.200700
					CHANNELS 3 Xrotation Yrotation Zrotation
					JOINT Bind_Left_JacketString1
					{
						OFFSET 0.364800 -5.904503 3.186800
						CHANNELS 3 Xrotation Yrotation Zrotation
						End Site
						{
							OFFSET 0.000000 6.719513 0.000000
						}
					}
				}
				JOINT HairE
				{
					OFFSET 5.915200 17.612701 -11.592200
					CHANNELS 3 Xrotation Yrotation Zrotation
					JOINT HairE1
					{
						OFFSET 0.289200 -7.171898 -1.284500
						CHANNELS 3 Xrotation Yrotation Zrotation
						End Site
						{
							OFFSET 0.000000 7.291756 0.000000
						}
					}
				}
				JOINT HairF
				{
					OFFSET -0.864800 17.612701 -11.592200
					CHANNELS 3 Xrotation Yrotation Zrotation
					JOINT HairF1
					{
						OFFSET 0.000000 -14.087097 -2.127501
						CHANNELS 3 Xrotation Yrotation Zrotation
						End Site
						{
							OFFSET 0.000000 14.246841 0.000000
						}
					}
				}
				JOINT HairG
				{
					OFFSET -8.087700 17.612701 -11.592200
					CHANNELS 3 Xrotation Yrotation Zrotation
					JOINT HairG1
					{
						OFFSET -0.293600 -6.081398 -0.910100
						CHANNELS 3 Xrotation Yrotation Zrotation
						End Site
						{
							OFFSET 0.000000 6.156120 0.000000
						}
					}
				}
			}
		}
	}
	JOINT Pouch
	{
		OFFSET 0.000000 4.394501 10.847300
		CHANNELS 3 Xrotation Yrotation Zrotation
		End Site
		{
			OFFSET 0.000000 21.880577 0.000000
		}
	}
	JOINT Bag
	{
		OFFSET -13.229000 4.813004 -0.593300
		CHANNELS 3 Xrotation Yrotation Zrotation
		End Site
		{
			OFFSET 0.000000 21.880577 0.000000
		}
	}
	JOINT OccupyGuyFacialAnim_Joint
	{
		OFFSET 1.000000 -70.206398 -1.655000
		CHANNELS 3 Xrotation Yrotation Zrotation
		End Site
		{
			OFFSET 0.000000 21.880577 0.000000
		}
	}
}
MOTION
Frames: 4
Frame Time: 0.033333
0.074686 65.708557 0.231520 5.709919 -9.439587 9.040581 -0.000000 -0.000000 -0.000000 -52.567462 -13.247831 -21.505008 36.888506 26.187900 3.925758 12.889171 -1.950060 -17.129471 0.000001 -0.000001 0.000001 0.000001 0.000000 -0.000001 -42.492676 -46.697740 -34.116587 47.828519 26.395630 5.847369 -26.899261 4.524880 -17.636170 0.000000 0.000000 0.000000 -0.000001 -0.000001 -0.000000 -1.438561 0.556259 0.699623 -2.887509 1.191148 1.602618 -2.887511 1.191154 1.602615 2.884188 -20.364704 2.032714 6.253292 -40.732946 20.812930 0.000001 0.000000 0.000001 0.000001 0.000000 0.000001 0.000001 0.000000 0.000000 0.000001 0.000000 -0.000001 0.000001 0.000001 0.000000 0.000001 0.000000 -0.000001 0.000001 0.000001 0.000000 0.000001 0.000000 0.000001 0.000001 0.000000 0.000001 0.510106 4.559235 -8.554857 -8.007454 -15.746260 -72.205639 -9.284323 -97.338897 8.391335 -95.615012 -27.177927 -6.976059 3.592085 4.185659 -5.133823 1.252892 4.302588 1.889377 0.000001 -0.000000 -0.000001 7.554900 5.560424 -33.410379 -14.917821 -6.767451 -80.641913 -0.000000 -0.000000 -0.000002 -0.349199 -1.566792 -62.979221 -6.177640 -6.585498 -60.286173 0.000001 -0.000000 -0.000001 -5.286474 4.624203 -73.484708 0.757944 -3.521242 -58.282844 -0.000001 -0.000001 -0.000003 -16.248779 1.424894 -86.150597 2.608778 -7.578008 -55.784730 -0.000001 0.000000 -0.000001 -0.000001 0.000000 0.000000 8.961672 16.742462 -0.704241 31.105563 45.020642 3.399686 -0.219851 97.120017 0.184152 -13.011323 31.972638 -17.300941 15.407455 -4.518740 17.011001 11.550401 4.015417 -20.411400 -0.000003 -0.000001 0.000003 1.857088 -0.976119 4.781786 -1.775914 -0.095291 22.317059 -0.000003 0.000000 -0.000001 3.631179 5.779692 48.858822 -9.397609 -0.919669 110.759768 -0.000003 -0.000003 0.000006 -8.676842 -5.659688 54.892304 -4.714135 8.864028 96.803766 0.000001 -0.000001 -0.000004 -12.562937 0.077572 69.885293 -3.484592 14.093108 79.770551 -0.000002 0.000001 -0.000001 0.000004 -0.000002 -0.000002 -0.000000 0.000000 -0.000000 -0.000000 -0.000000 -0.000001 -0.000000 0.000000 -0.000000 -0.000000 0.000000 -0.000000 -0.000000 0.000000 -0.000000 -0.000000 -0.000000 -0.000000 -0.000000 0.000000 -0.000000 -0.000000 0.000000 -0.000000 -0.000000 0.000000 -0.000000 -0.000000 -0.000000 -0.000000 -0.000000 -0.000000 -0.000000 -0.000000 -0.000000 -0.000000 -0.000000 -0.000000 -0.000000 
-2.469433 65.560097 0.255672 5.718708 -9.755260 8.160458 0.000000 -0.000000 0.000000 -53.194756 -11.669060 -24.153287 36.089063 27.502629 1.984575 12.337825 -1.819186 -18.827819 0.000001 0.000001 -0.000001 -0.000000 -0.000004 -0.000005 -36.906452 -48.363975 -28.589898 45.674933 25.723836 7.058811 -27.732475 5.286580 -19.441930 -0.000000 -0.000005 0.000000 0.000001 -0.000001 -0.000001 -1.407854 0.615047 0.863155 -2.827867 1.324295 1.854519 -2.827866 1.324296 1.854521 3.297907 -20.064756 3.065988 5.337403 -40.201401 20.103093 0.000001 -0.000001 -0.000001 0.000001 -0.000001 -0.000001 0.000001 -0.000001 -0.000001 0.000001 -0.000001 -0.000002 -0.000000 0.000000 -0.000000 0.000001 -0.000001 -0.000002 -0.000000 0.000000 -0.000000 0.000001 -0.000001 -0.000001 0.000001 -0.000001 -0.000001 0.455773 4.866858 -7.788267 -8.235807 -15.722819 -71.985993 -8.620640 -96.902346 9.488356 -96.396079 -26.821586 -7.464887 3.592084 4.185658 -5.133825 1.252895 4.302588 1.889380 -0.000000 0.000001 -0.000002 7.554902 5.560425 -33.410383 -14.917823 -6.767451 -80.641906 0.000001 0.000002 0.000004 -0.349199 -1.566795 -62.979214 -6.177640 -6.585495 -60.286173 -0.000001 -0.000001 -0.000003 -5.286470 4.624199 -73.484708 0.757942 -3.521241 -58.282844 0.000001 0.000001 -0.000002 -16.248781 1.424890 -86.150597 2.608774 -7.578008 -55.784730 0.000000 -0.000001 -0.000001 0.000000 -0.000002 -0.000001 8.771516 17.642872 -0.023548 31.443749 45.213861 2.639601 -0.193465 96.890434 -0.004274 -12.974147 31.470332 -17.807848 15.407454 -4.518739 17.011003 11.550405 4.015418 -20.411404 -0.000003 0.000000 0.000003 1.857090 -0.976119 4.781784 -1.775911 -0.095288 22.317056 -0.000002 -0.000001 0.000000 3.631168 5.779688 48.858819 -9.397608 -0.919666 110.759768 -0.000000 0.000002 -0.000001 -8.676847 -5.659690 54.892304 -4.714135 8.864031 96.803766 -0.000001 0.000002 -0.000003 -12.562936 0.077570 69.885293 -3.484590 14.093108 79.770551 -0.000000 -0.000000 0.000000 -0.000001 -0.000000 0.000001 -0.000000 0.000000 0.000000 -0.000000 -0.000000 -0.000000 -0.000000 0.000000 0.000000 -0.000000 0.000000 0.000000 -0.000000 0.000000 0.000000 -0.000000 -0.000000 0.000000 -0.000000 0.000000 0.000000 -0.000000 0.000000 0.000000 -0.000000 0.000000 0.000000 -0.000000 -0.000000 0.000000 0.000000 -0.000000 0.000000 0.000000 -0.000000 0.000000 0.000000 -0.000000 0.000000 
-5.102110 65.334984 0.305343 5.766921 -10.178680 7.343976 0.000000 -0.000001 -0.000000 -53.448734 -9.109778 -26.064010 37.275081 30.065687 -1.030869 12.287207 -1.481547 -18.255024 -0.000000 0.000000 -0.000002 -0.000003 0.000000 -0.000002 -30.557047 -49.333043 -21.953877 43.521658 24.427528 7.739260 -28.656141 6.098182 -20.852648 0.000000 -0.000005 -0.000000 -0.000000 -0.000001 -0.000000 -1.383680 0.675367 1.001317 -2.780124 1.444304 2.009520 -2.780126 1.444299 2.009521 3.769764 -19.860553 4.198496 4.568810 -39.798874 19.469574 0.000000 0.000000 -0.000000 0.000000 0.000000 -0.000000 0.000000 0.000000 -0.000001 0.000000 0.000000 -0.000003 0.000001 -0.000000 -0.000002 0.000000 0.000000 -0.000003 0.000001 -0.000000 -0.000002 0.000000 0.000000 -0.000000 0.000000 0.000000 -0.000000 0.389320 5.124612 -6.982400 -8.479487 -15.770104 -71.807964 -9.116056 -96.541131 9.396432 -97.050301 -26.544029 -8.085101 3.592086 4.185659 -5.133825 1.252895 4.302588 1.889376 -0.000000 0.000001 -0.000001 7.554902 5.560422 -33.410383 -14.917826 -6.767453 -80.641913 0.000003 0.000000 -0.000004 -0.349199 -1.566792 -62.979214 -6.177634 -6.585498 -60.286166 0.000001 -0.000001 -0.000005 -5.286474 4.624202 -73.484708 0.757940 -3.521243 -58.282844 -0.000001 0.000002 0.000002 -16.248778 1.424893 -86.150597 2.608778 -7.578009 -55.784730 -0.000002 0.000000 0.000001 0.000002 0.000002 -0.000001 8.572131 18.510907 0.690075 31.846300 45.410318 1.878983 -0.955430 96.379905 0.632096 -12.687175 31.501423 -18.586772 15.407460 -4.518739 17.011006 11.550401 4.015414 -20.411407 -0.000004 -0.000001 0.000006 1.857090 -0.976117 4.781787 -1.775908 -0.095288 22.317064 0.000003 0.000002 0.000001 3.631177 5.779691 48.858822 -9.397609 -0.919668 110.759768 0.000001 -0.000000 -0.000003 -8.676839 -5.659687 54.892308 -4.714136 8.864030 96.803773 0.000002 0.000002 0.000001 -12.562934 0.077575 69.885287 -3.484588 14.093106 79.770544 -0.000003 -0.000000 0.000001 -0.000000 0.000002 0.000001 0.000000 -0.000001 0.000000 0.000000 0.000000 0.000001 0.000000 -0.000001 0.000000 0.000000 -0.000001 0.000000 0.000000 -0.000001 0.000000 0.000000 0.000000 0.000001 0.000000 -0.000001 0.000000 0.000000 -0.000001 0.000000 0.000000 -0.000001 0.000000 0.000000 0.000000 0.000001 0.000000 -0.000001 -0.000000 0.000000 -0.000001 -0.000000 0.000000 -0.000001 -0.000000 
-7.831866 65.051224 0.364834 5.872175 -10.721016 6.673638 -0.000001 0.000000 -0.000000 -53.416013 -6.067666 -27.281102 40.268166 32.731503 -4.379128 12.098030 -0.629172 -15.342142 -0.000000 -0.000000 0.000000 -0.000003 0.000002 -0.000000 -23.721968 -49.604194 -14.671912 41.061291 22.913639 8.132377 -29.465361 6.862476 -22.098840 -0.000000 0.000002 0.000000 -0.000000 0.000000 -0.000000 -1.362265 0.770307 1.092063 -2.737551 1.627136 2.065498 -2.737551 1.627134 2.065494 4.049101 -19.775010 5.194561 4.078926 -39.536898 19.008797 -0.000001 0.000000 -0.000001 -0.000001 0.000000 -0.000001 -0.000001 0.000000 -0.000001 -0.000001 0.000000 -0.000001 -0.000000 0.000003 -0.000000 -0.000001 0.000000 -0.000001 -0.000000 0.000003 -0.000000 -0.000001 0.000000 -0.000001 -0.000001 0.000000 -0.000001 0.318333 5.236346 -6.227885 -8.772575 -15.888487 -71.636793 -10.409707 -96.303167 8.454511 -97.528100 -26.315621 -8.610218 3.592087 4.185661 -5.133823 1.252893 4.302589 1.889378 -0.000000 0.000001 -0.000001 7.554900 5.560424 -33.410383 -14.917825 -6.767452 -80.641906 0.000002 -0.000001 0.000001 -0.349201 -1.566791 -62.979214 -6.177637 -6.585496 -60.286166 0.000000 0.000001 -0.000004 -5.286474 4.624205 -73.484708 0.757940 -3.521241 -58.282844 -0.000000 0.000003 -0.000002 -16.248779 1.424896 -86.150597 2.608777 -7.578006 -55.784730 -0.000001 0.000000 -0.000001 0.000001 0.000001 -0.000000 8.403572 19.193426 1.287315 32.187601 45.588692 1.300021 -3.029281 95.861814 2.544043 -12.303106 31.751446 -19.490121 15.407457 -4.518740 17.011006 11.550399 4.015415 -20.411400 0.000001 -0.000000 0.000003 1.857089 -0.976121 4.781789 -1.775915 -0.095288 22.317059 -0.000001 0.000002 -0.000001 3.631175 5.779687 48.858819 -9.397611 -0.919669 110.759768 0.000004 0.000000 0.000001 -8.676839 -5.659689 54.892304 -4.714138 8.864033 96.803773 0.000000 -0.000000 0.000001 -12.562935 0.077573 69.885293 -3.484589 14.093108 79.770544 -0.000001 -0.000003 0.000002 -0.000000 -0.000000 -0.000000 -0.000000 -0.000001 -0.000001 -0.000000 0.000001 -0.000001 -0.000000 -0.000001 -0.000000 -0.000000 -0.000001 -0.000000 -0.000000 -0.000001 -0.000001 -0.000000 0.000001 -0.000001 -0.000000 -0.000001 -0.000000 -0.000000 -0.000001 -0.000000 -0.000000 -0.000001 -0.000001 -0.000000 0.000001 -0.000001 -0.000001 0.000000 -0.000000 -0.000001 0.000000 -0.000000 -0.000001 0.000000 -0.000000 
